<?xml version="1.0" encoding="UTF-8"?>
<svg width="16px" height="16px" viewBox="0 0 16 16" version="1.1" xmlns="http://www.w3.org/2000/svg" xmlns:xlink="http://www.w3.org/1999/xlink">
    <!-- Generator: Sketch 63.1 (92452) - https://sketch.com -->
    <title>加 copy</title>
    <desc>Created with Sketch.</desc>
    <g id="Page-1" stroke="none" stroke-width="1" fill="none" fill-rule="evenodd">
        <g id="标准列表-copy-9备份-2" transform="translate(-326.000000, -381.000000)" fill="#1890FF" fill-rule="nonzero">
            <g id="加-copy" transform="translate(326.000000, 381.000000)">
                <path d="M8,16.0000186 C3.58172292,16.0000186 0,12.4182957 0,8 C0,3.58172292 3.58172292,0 8,0 C12.4182957,0 16.0000186,3.58172292 16.0000186,8 C16.0000186,12.4182957 12.4182957,16.0000186 8,16.0000186 Z M7.14286612,7.28572723 L3.71428401,7.28572723 L3.71428397,7.28572723 C3.24089592,7.28572725 2.85714079,7.66948392 2.85714079,8.14287041 C2.85714079,8.61625846 3.24089748,9.0000136 3.71428397,9.0000136 L7.14286609,9.0000136 L7.14286609,12.2857362 L7.14286609,12.2857363 C7.14286616,12.7591243 7.52662278,13.1428795 8.00001083,13.1428795 C8.47339888,13.1428795 8.85715402,12.7591228 8.85715402,12.2857363 L8.85715402,9.0000137 L12.2857361,9.0000137 L12.2857361,9.0000137 C12.7591241,9.00001372 13.1428793,8.61625701 13.1428793,8.14287052 C13.1428793,7.66948247 12.7591226,7.28572733 12.2857361,7.28572733 L8.85715398,7.28572733 L8.85715398,3.7143013 L8.85715398,3.7143013 C8.85715398,3.24091325 8.47339729,2.85715812 8.0000108,2.85715812 C7.52662275,2.85715812 7.14286761,3.24091481 7.14286761,3.7143013 L7.14286761,7.28572733 L7.14286612,7.28572723 Z" id="形状"></path>
            </g>
        </g>
    </g>
</svg>