<?xml version="1.0" encoding="UTF-8"?>
<svg width="24px" height="24px" viewBox="0 0 24 24" version="1.1" xmlns="http://www.w3.org/2000/svg" xmlns:xlink="http://www.w3.org/1999/xlink">
    <!-- Generator: Sketch 52.4 (67378) - http://www.bohemiancoding.com/sketch -->
    <title>头像</title>
    <desc>Created with Sketch.</desc>
    <g id="Page-1" stroke="none" stroke-width="1" fill="none" fill-rule="evenodd">
        <g id="头像">
            <g id="分组" transform="translate(0.209303, 0.281251)">
                <path d="M0.00613954203,11.5256471 L0.00613954203,11.5256489 C0.00614050253,17.886742 5.16282723,23.0434297 11.5239204,23.0434297 C17.8850135,23.0434288 23.0417012,17.886742 23.0417012,11.5256489 C23.0417012,5.16455571 17.8850135,0.00786802736 11.5239204,0.00786802736 C5.16282723,0.00786802736 0.00613954203,5.16455571 0.00613954203,11.5256489 L0.00613954203,11.5256471 Z" id="路径" fill="#FFBF00"></path>
                <path d="M11.462525,10.9853674 C13.3780621,10.9853674 14.9375058,9.42592376 14.9375058,7.51038665 C14.9375058,5.59484953 13.3780621,4.04768494 11.462525,4.04768494 C9.54698785,4.04768494 7.99982326,5.59484953 7.99982326,7.51038665 C7.98754418,9.43820284 9.54698785,10.9853674 11.462525,10.9853674 Z M13.8692254,11.2677864 L11.5116413,14.9146743 L9.276848,11.1818328 C7.10345013,12.0536477 5.35982019,14.2516038 5.39665744,17.8125382 C9.7434532,19.4579354 13.80783,19.3474237 17.6757415,17.8125382 C17.6389042,14.3743946 15.9689488,12.1887177 13.8692254,11.2677864 Z" id="形状" fill="#FFFFFF" fill-rule="nonzero"></path>
            </g>
        </g>
    </g>
</svg>