<?xml version="1.0" encoding="UTF-8"?>
<svg width="24px" height="24px" viewBox="0 0 24 24" version="1.1" xmlns="http://www.w3.org/2000/svg" xmlns:xlink="http://www.w3.org/1999/xlink">
    <!-- Generator: Sketch 63.1 (92452) - https://sketch.com -->
    <title>编组 10</title>
    <desc>Created with Sketch.</desc>
    <g id="Page-1" stroke="none" stroke-width="1" fill="none" fill-rule="evenodd">
        <g id="标准列表-copy-9备份" transform="translate(-505.000000, -148.000000)" fill-rule="nonzero">
            <g id="编组-10" transform="translate(505.000000, 148.000000)">
                <path d="M12.0000134,0 C5.37256497,0 0,5.37259827 0,12 C0,18.6274286 5.37259185,24 12.0000134,24 C18.627435,24 24,18.6274286 24,12 C24,5.37262513 18.6274082,0 12.0000134,0 Z" id="路径" fill="#1890FF"></path>
                <g id="编组-9" transform="translate(8.000000, 5.000000)">
                    <path d="M7.97542415,11.9719403 C7.97542415,12.3321337 7.84403377,12.6438281 7.58083668,12.9070524 C7.31763989,13.170753 7.00594404,13.3021147 6.64622829,13.3021147 L1.32916691,13.3021147 C0.968973465,13.3021147 0.657782819,13.1707533 0.394558519,12.9070524 C0.131361722,12.6438556 6.01638397e-13,12.3321598 6.01638397e-13,11.9719403 L6.01638397e-13,1.33017441 C6.01638397e-13,0.969980967 0.131361433,0.65828657 0.394558519,0.394558519 C0.657755315,0.131361722 0.968947409,-6.50419889e-14 1.32916691,-6.50419889e-14 L6.64625724,-6.50419889e-14 C7.00594694,-6.50419889e-14 7.31764134,0.131361433 7.58086564,0.394558519 C7.84406243,0.658259066 7.97542415,0.969954911 7.97542415,1.33017441 L7.97542415,11.9719403 L7.97542415,11.9719403 Z" id="路径" fill="#FFFFFF"></path>
                    <path d="M6.64625724,2.66033725 L1.32916691,2.66033725 C1.2392523,2.66033725 1.16145435,2.69316269 1.09577364,2.75884341 C1.02958917,2.82502788 0.996763721,2.90282554 0.996763721,2.99274015 L0.996763721,10.3088239 C0.996763721,10.3992423 1.02958917,10.4770399 1.09577364,10.5427206 C1.16145435,10.6089051 1.23925201,10.6417306 1.32916691,10.6417306 L6.64625724,10.6417306 C6.73617185,10.6417306 6.8139698,10.6089052 6.87965052,10.5427207 C6.94533123,10.47704 6.97866043,10.3992423 6.97866043,10.308824 L6.97866043,2.9927402 C6.97866043,2.9028256 6.94533123,2.82502765 6.87965052,2.75884347 C6.81399933,2.69319228 6.73617214,2.66033725 6.64625724,2.66033725 L6.64625724,2.66033725 Z" id="路径" fill="#1890FF"></path>
                    <path d="M3.15694188,1.66259208 L4.81851198,1.66259208 C4.92913509,1.66259208 4.98471357,1.60701388 4.98471357,1.49639048 C4.98471357,1.38576708 4.92913538,1.33018889 4.81851198,1.33018889 L3.15694188,1.33018889 C3.04631848,1.33018889 2.99074028,1.38576708 2.99074028,1.49639048 C2.99074028,1.60701388 3.04631848,1.66259208 3.15694188,1.66259208 Z" id="路径" fill="#1890FF"></path>
                    <path d="M3.98798025,11.140404 C3.75911987,11.140404 3.56361937,11.2217273 3.40094258,11.384907 C3.23826666,11.5475829 3.15694333,11.7430854 3.15694333,11.9719446 C3.15694333,12.2003013 3.23826666,12.3963055 3.40094258,12.5589823 C3.5636185,12.722162 3.75912103,12.8034853 3.98798025,12.8034853 C4.21633689,12.8034853 4.41183738,12.722162 4.57451417,12.5589823 C4.73719009,12.3963064 4.81851343,12.2003001 4.81851343,11.9719446 C4.81851343,11.7430842 4.73719009,11.5475838 4.57451417,11.384907 C4.41183825,11.2217273 4.21630678,11.140404 3.98798025,11.140404 Z" id="路径" fill="#1890FF"></path>
                </g>
            </g>
        </g>
    </g>
</svg>