<?xml version="1.0" encoding="UTF-8"?>
<svg width="24px" height="24px" viewBox="0 0 24 24" version="1.1" xmlns="http://www.w3.org/2000/svg" xmlns:xlink="http://www.w3.org/1999/xlink">
    <!-- Generator: Sketch 63.1 (92452) - https://sketch.com -->
    <title>编组备份</title>
    <desc>Created with Sketch.</desc>
    <g id="Page-1" stroke="none" stroke-width="1" fill="none" fill-rule="evenodd">
        <g id="标准列表-copy-9备份" transform="translate(-287.000000, -199.000000)">
            <g id="编组备份" transform="translate(287.000000, 199.000000)">
                <rect id="矩形" fill="#1890FF" x="0" y="0" width="24" height="24" rx="12"></rect>
                <g id="电-话" transform="translate(5.538462, 5.538462)" fill="#FFFFFF" fill-rule="nonzero">
                    <path d="M9.24053466,5.69659373 C9.24053466,5.96899379 9.42166925,6.15143848 9.69527115,6.15143848 C9.96760638,6.15143848 10.1500076,5.97026077 10.1500076,5.69659373 C10.1462076,4.19269198 8.92766581,2.97386006 7.42285535,2.96879215 C7.15052013,2.96879215 6.96811886,3.14996987 6.96811886,3.42363691 C6.96811886,3.69730395 7.15052013,3.87848167 7.42285535,3.87848167 C8.42606233,3.87974865 9.2380013,4.69314791 9.24053466,5.69659373 L9.24053466,5.69659373 Z M11.0594806,5.69659373 C11.0594806,5.96899379 11.2406152,6.15143848 11.5142171,6.15143848 C11.787819,6.15143848 11.9689536,5.97026077 11.9689536,5.69659373 C11.9689536,3.19684802 9.92327274,1.1506801 7.42412203,1.1506801 C7.1517868,1.1506801 6.96938553,1.33312479 6.96938553,1.60552485 C6.96938553,1.87792492 7.1517868,2.06036961 7.42412203,2.06036961 C9.42293592,2.05910263 11.0594806,3.69603697 11.0594806,5.69659373 L11.0594806,5.69659373 Z M4.92370465,4.10527056 C5.42404146,3.6060816 5.46964177,2.83195863 5.01490528,2.2871585 L3.60636215,0.514657619 C3.15162566,-0.0757536826 2.28901966,-0.16697603 1.69748222,0.286601752 C1.6518819,0.332212925 1.60754826,0.332212925 1.60754826,0.377824099 L0.380139726,1.60552485 C-0.80166849,2.78761443 0.880476538,5.96899379 3.92556437,9.0148066 C6.96938553,12.0606194 10.1044073,13.6975538 11.2862155,12.5610753 L12.5136241,11.3333746 C13.0595612,10.7873075 13.0595612,9.92449612 12.5136241,9.42404019 L12.4236901,9.33281784 L10.6503445,7.92393937 C10.105674,7.46909461 9.33300197,7.51470578 8.83266515,8.01516171 L8.05999312,8.78801771 C7.24172076,8.28756178 6.51464904,7.74149467 5.87751128,7.1054722 C5.24164019,6.46818274 4.69696974,5.74093792 4.19663292,4.92247075 L4.92370465,4.10527056 Z M4.28783356,2.8775698 C4.42463451,3.0600145 4.42463451,3.33241456 4.24223324,3.46924808 L3.24282629,4.51450414 C3.10095864,4.65893953 3.06549173,4.87685958 3.15289234,5.06057125 C3.68869606,6.04501241 4.36256741,6.94836704 5.15297291,7.74149467 C5.94717843,8.53208835 6.85031804,9.20612013 7.83325821,9.74205142 C8.01565947,9.82947284 8.23352766,9.79273051 8.37919533,9.65082908 L9.4242026,8.60557302 C9.60660387,8.4243953 9.83333878,8.4243953 10.01574,8.55996184 L11.787819,10.0144515 C11.787819,10.0144515 11.8334193,10.0144515 11.8334193,10.0600627 C12.0094872,10.2273036 12.0158206,10.5047716 11.8486195,10.6808814 L11.8334193,10.6960851 L10.6060108,11.9237859 C10.01574,12.5141972 7.19865379,11.0140964 4.51710182,8.37751715 C1.83428317,5.74093792 0.378873051,2.8775698 0.970410496,2.2871585 L2.24215267,1.01384657 C2.42455394,0.877013054 2.74248948,0.877013054 2.87929043,1.10506892 L4.28783356,2.8775698 Z" id="形状"></path>
                </g>
            </g>
        </g>
    </g>
</svg>