<?xml version="1.0" encoding="UTF-8"?>
<svg width="24px" height="24px" viewBox="0 0 24 24" version="1.1" xmlns="http://www.w3.org/2000/svg" xmlns:xlink="http://www.w3.org/1999/xlink">
    <!-- Generator: Sketch 63.1 (92452) - https://sketch.com -->
    <title>座机</title>
    <desc>Created with Sketch.</desc>
    <g id="Page-1" stroke="none" stroke-width="1" fill="none" fill-rule="evenodd">
        <g id="标准列表-copy-9备份" transform="translate(-539.000000, -148.000000)" fill-rule="nonzero">
            <g id="座机" transform="translate(539.000000, 148.000000)">
                <path d="M12.0105154,7.06450221e-07 L12.0037654,7.06450221e-07 C5.37825767,-0.00224858927 0.00225141596,5.36700766 7.06450221e-07,11.9940154 C-0.00224858927,18.6210231 5.36700766,23.9955293 11.9940154,24.00003 C18.6217731,24.0022793 23.9955293,18.6330231 24.0000293,12.0060154 L24.0000293,12.0015154 C24.0000293,5.37600767 18.6330231,0.00300141684 12.0105154,7.06450221e-07 Z" id="形状" fill="#1890FF"></path>
                <g id="编组" transform="translate(5.000000, 6.000000)">
                    <path d="M12.5201245,10.9515125 C12.5201245,11.4384506 12.1624679,11.7757635 11.6453423,11.7764197 L6.67883649,11.7757635 L1.72545573,11.7757635 C1.18798635,11.7757635 0.836235943,11.4456693 0.836235943,10.9416687 C0.836235943,10.5695746 0.831642188,10.2663867 0.831642188,9.82604244 C0.796860897,9.27216679 0.938611062,8.75963494 1.16829883,8.25825936 C1.62308061,7.26535196 2.21567505,6.34594464 2.82795701,5.43638108 C2.91130086,5.31234968 2.99661346,5.18897454 3.08455106,5.06756815 C3.25648876,4.83197412 3.49405154,4.71122398 3.79986439,4.71056773 C3.92061453,4.70991148 4.08008347,4.74666153 4.15095855,4.68956771 C4.22445864,4.62984889 4.17130232,4.47497371 4.17327108,4.36144233 C4.17589608,4.18556712 4.17392733,4.00969192 4.17392733,3.83381671 C4.17392733,3.49781632 4.33142751,3.29175358 4.67333416,3.19003471 C4.95945949,3.10472211 5.23967857,3.12047213 5.50480388,3.25762854 C5.72661663,3.37247243 5.85196053,3.54375388 5.84474177,3.79378542 C5.83752301,4.05891073 5.84671052,4.32534854 5.84146052,4.59047384 C5.83949177,4.67972395 5.85524178,4.71516149 5.96417941,4.71319274 C6.44258622,4.70663023 6.92033677,4.70663023 7.39808733,4.71319274 C7.50308745,4.71450524 7.51621247,4.68103645 7.51424371,4.5963801 C7.50899371,4.34306731 7.51161871,4.08975451 7.51227496,3.83644172 C7.51293121,3.49191007 7.66846264,3.29175358 8.02218181,3.18872221 C8.33324467,3.09750336 8.63249502,3.12572214 8.90746409,3.29503484 C9.08924555,3.40725372 9.18768316,3.56541015 9.18308941,3.77869165 C9.1765269,4.06022323 9.18374566,4.34241105 9.17980815,4.62459888 C9.17849565,4.69416146 9.19949568,4.71647399 9.27365201,4.71188023 C9.37733963,4.70597398 9.48233975,4.71056773 9.58668363,4.71122398 C9.86034019,4.71253649 10.092653,4.80900535 10.2508094,5.01769309 C11.021904,6.03619428 11.7332799,7.08816425 12.2228429,8.25760311 C12.4216869,8.73207241 12.5411246,9.22097923 12.5227495,9.73744858 C12.5437496,10.1357928 12.5201245,10.5466058 12.5201245,10.9515125 L12.5201245,10.9515125 Z" id="路径" fill="#FFFFFF"></path>
                    <path d="M13.3522505,3.91847306 C13.3476568,4.38637986 13.0024689,4.70991148 12.5050308,4.71122398 C11.9616551,4.71253649 11.4189358,4.71319274 10.8755601,4.71188023 C10.4332471,4.71056773 10.0467154,4.37653609 10.0434342,3.97228562 C10.0362154,3.00169074 9.48496476,2.37169001 8.6154325,1.94775202 C8.12980693,1.71084549 7.59758756,1.6294704 7.05552443,1.60912662 C6.37958614,1.58353284 5.70889786,1.60322037 5.06183461,1.81978312 C4.45677141,2.02190835 3.97245834,2.36775251 3.6331767,2.88619061 C3.43958272,3.18150345 3.34180136,3.50241008 3.33983261,3.84956673 C3.33655135,4.39491112 2.99267595,4.71253649 2.41058153,4.71122398 L0.898579766,4.71122398 C0.351266629,4.71056773 0.00279747342,4.3830986 0.00214122266,3.87056676 C0.0014849719,3.62119147 0.00542247648,3.37181618 0.000828721132,3.12244089 L0.000828729761,3.12244113 C-0.0130316145,2.72406206 0.147524975,2.33944374 0.440516741,2.06915866 C1.37370533,1.17337637 2.4696441,0.548625638 3.78017688,0.270375315 C4.73436549,0.0682500794 5.70167911,0.00196875229 6.6762115,2.87547763e-14 C7.72096271,0.00393750458 8.75718267,0.0767813393 9.7750276,0.318937871 C10.9871228,0.607688207 11.9990614,1.21275141 12.8784375,2.03240861 C13.2065628,2.33822147 13.3653755,2.70900315 13.3542193,3.14606616 C13.3476568,3.40331646 13.3547685,3.66122301 13.3522505,3.91847331 L13.3522505,3.91847306 Z" id="路径" fill="#FFFFFF"></path>
                    <path d="M6.67424274,10.2060116 C5.75942917,10.2060116 5.00802205,9.4985733 5.00933283,8.6375723 C5.01064705,7.76607129 5.75483542,7.06716423 6.68343025,7.06585127 C7.59299381,7.06519547 8.34702593,7.76935254 8.34702593,8.62116603 C8.34702593,9.50382331 7.60677507,10.2053554 6.67424274,10.2060116 L6.67424274,10.2060116 Z M6.71755529,6.28097581 C5.31186615,6.2717883 4.18048983,7.31785202 4.17456036,8.6323223 C4.16867732,9.91857379 5.29020988,10.9836688 6.65849272,10.9909315 C8.04318183,10.9987626 9.1739019,9.94744883 9.18116204,8.64479106 C9.18899566,7.36182082 8.07205686,6.29016332 6.71755529,6.28097581 Z" id="形状" fill="#1890FF"></path>
                </g>
            </g>
        </g>
    </g>
</svg>